<svg width="24" height="24" viewBox="0 0 24 24" fill="none" xmlns="http://www.w3.org/2000/svg">
<path d="M22.5 2.24741L16.4948 2.24744V0.752686C16.4948 0.33831 16.1591 0.00268555 15.7448 0.00268555C15.3304 0.00268555 14.9948 0.33831 14.9948 0.752686V2.24706H8.99475V0.752686C8.99475 0.33831 8.65913 0.00268555 8.24475 0.00268555C7.83038 0.00268555 7.49475 0.33831 7.49475 0.752686V2.24706H1.5C0.671625 2.24706 0 2.91869 0 3.74706V22.4971C0 23.3254 0.671625 23.9971 1.5 23.9971H22.5C23.3284 23.9971 24 23.3254 24 22.4971V3.74706C24 2.91904 23.3284 2.24741 22.5 2.24741ZM22.5 22.4971H1.5V3.74706H7.49475V4.50269C7.49475 4.91704 7.83038 5.25269 8.24475 5.25269C8.65913 5.25269 8.99475 4.91704 8.99475 4.50269V3.74744H14.9948V4.50306C14.9948 4.91744 15.3304 5.25306 15.7448 5.25306C16.1591 5.25306 16.4948 4.91744 16.4948 4.50306V3.74744H22.5V22.4971ZM17.25 11.9974H18.75C19.164 11.9974 19.5 11.6614 19.5 11.2474V9.74741C19.5 9.33341 19.164 8.99741 18.75 8.99741H17.25C16.836 8.99741 16.5 9.33341 16.5 9.74741V11.2474C16.5 11.6614 16.836 11.9974 17.25 11.9974ZM17.25 17.997H18.75C19.164 17.997 19.5 17.6614 19.5 17.247V15.747C19.5 15.333 19.164 14.997 18.75 14.997H17.25C16.836 14.997 16.5 15.333 16.5 15.747V17.247C16.5 17.6618 16.836 17.997 17.25 17.997ZM12.75 14.997H11.25C10.836 14.997 10.5 15.333 10.5 15.747V17.247C10.5 17.6614 10.836 17.997 11.25 17.997H12.75C13.164 17.997 13.5 17.6614 13.5 17.247V15.747C13.5 15.3334 13.164 14.997 12.75 14.997ZM12.75 8.99741H11.25C10.836 8.99741 10.5 9.33341 10.5 9.74741V11.2474C10.5 11.6614 10.836 11.9974 11.25 11.9974H12.75C13.164 11.9974 13.5 11.6614 13.5 11.2474V9.74741C13.5 9.33304 13.164 8.99741 12.75 8.99741ZM6.75 8.99741H5.25C4.836 8.99741 4.5 9.33341 4.5 9.74741V11.2474C4.5 11.6614 4.836 11.9974 5.25 11.9974H6.75C7.164 11.9974 7.5 11.6614 7.5 11.2474V9.74741C7.5 9.33304 7.164 8.99741 6.75 8.99741ZM6.75 14.997H5.25C4.836 14.997 4.5 15.333 4.5 15.747V17.247C4.5 17.6614 4.836 17.997 5.25 17.997H6.75C7.164 17.997 7.5 17.6614 7.5 17.247V15.747C7.5 15.3334 7.164 14.997 6.75 14.997Z" fill="black"/>
</svg>
