<svg width="20" height="15" viewBox="0 0 20 15" fill="none" xmlns="http://www.w3.org/2000/svg">
<path d="M19.5852 1.14164C19.2023 0.461792 18.4978 0 17.6817 0H9.94595V1.14164H19.5852ZM0 11.4164H19.8919V12.558H0V11.4164ZM9.94595 6.84982H19.8919V7.99145H9.94595V6.84982ZM9.94595 4.56655H19.8919V5.70818H9.94595V4.56655ZM0 9.13309H19.8919V10.2747H0V9.13309ZM2.21021 14.8413H17.6817C18.4978 14.8413 19.2023 14.3795 19.5852 13.6996H0.306667C0.689586 14.3795 1.39409 14.8413 2.21021 14.8413ZM9.94595 2.28327H19.8919V3.42491H9.94595V2.28327Z" fill="#B22334"/>
<path d="M0.0375736 12.9456C0.0467828 12.9989 0.0576496 13.0516 0.0701742 13.1037C0.0849089 13.1608 0.101854 13.2171 0.121009 13.2727C0.170186 13.4205 0.229862 13.5632 0.305009 13.6968L0.306667 13.6996H19.5852L19.5863 13.6973C19.6612 13.5631 19.7227 13.4214 19.7698 13.2744C19.8056 13.1671 19.8337 13.0572 19.8538 12.9456C19.8764 12.82 19.8919 12.691 19.8919 12.558H0C0 12.691 0.0154715 12.8194 0.0375736 12.9456ZM0 10.2747H19.8919V11.4164H0V10.2747ZM0 7.99145V9.13309H19.8919V7.99145H9.94595H0ZM9.94595 5.70818H19.8919V6.84981H9.94595V5.70818ZM9.94595 3.4249H19.8919V4.56654H9.94595V3.4249ZM0.0707267 1.73757C0.0845405 1.67934 0.10388 1.62397 0.121562 1.56803C0.102496 1.62384 0.0855384 1.6804 0.0707267 1.73757ZM9.94595 2.28327H19.8919C19.8919 2.15027 19.8764 2.02126 19.8538 1.89511C19.8344 1.78329 19.8062 1.67332 19.7692 1.56632C19.722 1.41865 19.6604 1.27635 19.5852 1.14163H9.94595V2.28327Z" fill="#EEEEEE"/>
<path d="M9.94595 0H2.21021C1.62403 0 1.06185 0.240558 0.647356 0.668755C0.232861 1.09695 0 1.67771 0 2.28327L0 7.99145H9.94595V0Z" fill="#3C3B6E"/>
<path d="M1.10547 1.55605L1.44695 1.81234L1.31654 2.22619L1.65747 1.97046L1.99895 2.22619L1.86854 1.81234L2.21002 1.55605H1.78787L1.65747 1.14163L1.52762 1.55605H1.10547ZM2.21057 2.69768L2.55205 2.95398L2.42165 3.36782L2.76257 3.1121L3.10405 3.36782L2.97365 2.95398L3.31513 2.69768H2.89298L2.76257 2.28327L2.63272 2.69768H2.21057ZM4.42078 2.69768L4.76226 2.95398L4.63186 3.36782L4.97278 3.1121L5.31426 3.36782L5.18386 2.95398L5.52534 2.69768H5.10319L4.97278 2.28327L4.84293 2.69768H4.42078ZM6.63099 2.69768L6.97247 2.95398L6.84207 3.36782L7.18299 3.1121L7.52447 3.36782L7.39407 2.95398L7.73555 2.69768H7.3134L7.18299 2.28327L7.05314 2.69768H6.63099ZM2.21057 4.98095L2.55205 5.23725L2.42165 5.65109L2.76257 5.39537L3.10405 5.65109L2.97365 5.23725L3.31513 4.98095H2.89298L2.76257 4.56654L2.63272 4.98095H2.21057ZM4.42078 4.98095L4.76226 5.23725L4.63186 5.65109L4.97278 5.39537L5.31426 5.65109L5.18386 5.23725L5.52534 4.98095H5.10319L4.97278 4.56654L4.84293 4.98095H4.42078ZM6.63099 4.98095L6.97247 5.23725L6.84207 5.65109L7.18299 5.39537L7.52447 5.65109L7.39407 5.23725L7.73555 4.98095H7.3134L7.18299 4.56654L7.05314 4.98095H6.63099ZM3.31568 1.55605L3.65716 1.81234L3.52675 2.22619L3.86768 1.97046L4.20916 2.22619L4.07875 1.81234L4.42023 1.55605H3.99808L3.86768 1.14163L3.73783 1.55605H3.31568ZM5.52589 1.55605L5.86737 1.81234L5.73696 2.22619L6.07789 1.97046L6.41937 2.22619L6.28896 1.81234L6.63044 1.55605H6.20829L6.07789 1.14163L5.94804 1.55605H5.52589ZM7.7361 1.55605L8.07758 1.81234L7.94717 2.22619L8.2881 1.97046L8.62958 2.22619L8.49917 1.81234L8.84065 1.55605H8.4185L8.2881 1.14163L8.15825 1.55605H7.7361ZM1.10547 3.83932L1.44695 4.09562L1.31654 4.50946L1.65747 4.25373L1.99895 4.50946L1.86854 4.09562L2.21002 3.83932H1.78787L1.65747 3.4249L1.52762 3.83932H1.10547ZM3.52675 4.50946L3.86768 4.25373L4.20916 4.50946L4.07875 4.09562L4.42023 3.83932H3.99808L3.86768 3.4249L3.73783 3.83932H3.31568L3.65716 4.09562L3.52675 4.50946ZM5.52589 3.83932L5.86737 4.09562L5.73696 4.50946L6.07789 4.25373L6.41937 4.50946L6.28896 4.09562L6.63044 3.83932H6.20829L6.07789 3.4249L5.94804 3.83932H5.52589ZM7.7361 3.83932L8.07758 4.09562L7.94717 4.50946L8.2881 4.25373L8.62958 4.50946L8.49917 4.09562L8.84065 3.83932H8.4185L8.2881 3.4249L8.15825 3.83932H7.7361ZM1.10547 6.12259L1.44695 6.37889L1.31654 6.79273L1.65747 6.537L1.99895 6.79273L1.86854 6.37889L2.21002 6.12259H1.78787L1.65747 5.70818L1.52762 6.12259H1.10547ZM3.52675 6.79273L3.86768 6.537L4.20916 6.79273L4.07875 6.37889L4.42023 6.12259H3.99808L3.86768 5.70818L3.73783 6.12259H3.31568L3.65716 6.37889L3.52675 6.79273ZM5.52589 6.12259L5.86737 6.37889L5.73696 6.79273L6.07789 6.537L6.41937 6.79273L6.28896 6.37889L6.63044 6.12259H6.20829L6.07789 5.70818L5.94804 6.12259H5.52589ZM7.7361 6.12259L8.07758 6.37889L7.94717 6.79273L8.2881 6.537L8.62958 6.79273L8.49917 6.37889L8.84065 6.12259H8.4185L8.2881 5.70818L8.15825 6.12259H7.7361Z" fill="white"/>
</svg>
